# xmcd
#
# Track frame offsets: 
#        150
#        14075
#        28595
#        42277
#        56667
#        70027
#        84270
#        99030
#        112985
#        126125
#        140632
#        155507
#        170015
#        183967
#        197820
#        210930
#
# Disc length: 3021 seconds
#
# Revision: 6
# Processed by: cddbd v1.5.2PL0 Copyright (c) Steve Scherf et al.
# Submitted via: ExactAudioCopyFreeDBPlugin 1.0
#
DISCID=d20bcb10
DTITLE=Charley Patton - Complete Recordings, 1929-1934
DYEAR=2002
DGENRE=Blues
TTITLE0=Some Summer Day
TTITLE1=Bird Nest Bound
TTITLE2=Willie Brown - Future Blues
TTITLE3=Willie Brown - M&O Blues
TTITLE4=Son House - Walkin' Blues (possibly ft Charley Patton on guita
TTITLE4=r)
TTITLE5=Son House - My Black Mama, Part 1
TTITLE6=Son House - My Black Mama, Part 2
TTITLE7=Son House - Preachin' the Blues, Part 1
TTITLE8=Son House - Preachin' the Blues, Part 2
TTITLE9=Son House - Dry Spell Blues, Part 1
TTITLE10=Son House - Dry Spell Blues, Part 2
TTITLE11=Louise Johnson - All Night Long Blues (take 1) (ft Charley Pa
TTITLE11=tton, speech)
TTITLE12=Louise Johnson - On the Wall
TTITLE13=Louise Johnson - All Night Long Blues (take 2) (ft Charley Pa
TTITLE13=tton, speech)
TTITLE14=Louise Johnson - By the Moon and Stars
TTITLE15=Louise Johnson - Long Ways from Home (ft Charley Patton, spee
TTITLE15=ch)
EXTD=Various artists: tracks 1,2 =Charley Patton - 3,4 =Willie Brown;
EXTD=5-11 \n=Son House - 12-16 =Louisee Johnson -  recorded June 1930
EXTD=YEAR: 2002
EXTT0=
EXTT1=
EXTT2=
EXTT3=
EXTT4=
EXTT5=
EXTT6=
EXTT7=
EXTT8=
EXTT9=
EXTT10=
EXTT11=
EXTT12=
EXTT13=
EXTT14=
EXTT15=
PLAYORDER=
